<mxfile host="app.diagrams.net" agent="Mozilla/5.0 (Macintosh; Intel Mac OS X 10_15_7) AppleWebKit/537.36 (KHTML, like Gecko) Chrome/141.0.0.0 Safari/537.36" version="28.2.5">
  <diagram name="Page-1" id="i3Iq6C28p3LttPfp_rMA">
    <mxGraphModel dx="1056" dy="610" grid="1" gridSize="10" guides="1" tooltips="1" connect="1" arrows="1" fold="1" page="1" pageScale="1" pageWidth="1654" pageHeight="1169" math="0" shadow="0">
      <root>
        <mxCell id="0" />
        <mxCell id="1" parent="0" />
        <mxCell id="JVchiZWiMFPqmeBSZ4L8-2" value="Player" style="swimlane;whiteSpace=wrap;html=1;" vertex="1" parent="1">
          <mxGeometry x="1040" y="599" width="160" height="120" as="geometry" />
        </mxCell>
        <mxCell id="JVchiZWiMFPqmeBSZ4L8-3" value="&lt;ul&gt;&lt;li&gt;String id&lt;/li&gt;&lt;li&gt;int currentPosition&lt;/li&gt;&lt;li&gt;String name&lt;/li&gt;&lt;/ul&gt;" style="text;html=1;align=left;verticalAlign=middle;resizable=0;points=[];autosize=1;strokeColor=none;fillColor=none;" vertex="1" parent="JVchiZWiMFPqmeBSZ4L8-2">
          <mxGeometry x="-10" y="20" width="160" height="80" as="geometry" />
        </mxCell>
        <mxCell id="JVchiZWiMFPqmeBSZ4L8-4" value="DiceCount" style="swimlane;whiteSpace=wrap;html=1;" vertex="1" parent="1">
          <mxGeometry x="760" y="599" width="160" height="120" as="geometry" />
        </mxCell>
        <mxCell id="JVchiZWiMFPqmeBSZ4L8-5" value="&lt;ul&gt;&lt;li&gt;int diceCount&lt;/li&gt;&lt;/ul&gt;" style="text;html=1;align=left;verticalAlign=middle;resizable=0;points=[];autosize=1;strokeColor=none;fillColor=none;" vertex="1" parent="JVchiZWiMFPqmeBSZ4L8-4">
          <mxGeometry x="-10" y="20" width="130" height="50" as="geometry" />
        </mxCell>
        <mxCell id="JVchiZWiMFPqmeBSZ4L8-7" value="rollDice()" style="text;html=1;align=center;verticalAlign=middle;resizable=0;points=[];autosize=1;strokeColor=none;fillColor=none;" vertex="1" parent="JVchiZWiMFPqmeBSZ4L8-4">
          <mxGeometry x="20" y="70" width="70" height="30" as="geometry" />
        </mxCell>
        <mxCell id="JVchiZWiMFPqmeBSZ4L8-6" value="" style="endArrow=none;html=1;rounded=0;entryX=1;entryY=0.5;entryDx=0;entryDy=0;exitX=0;exitY=0.5;exitDx=0;exitDy=0;" edge="1" parent="1" source="JVchiZWiMFPqmeBSZ4L8-4" target="JVchiZWiMFPqmeBSZ4L8-4">
          <mxGeometry width="50" height="50" relative="1" as="geometry">
            <mxPoint x="620" y="769" as="sourcePoint" />
            <mxPoint x="670" y="719" as="targetPoint" />
          </mxGeometry>
        </mxCell>
        <mxCell id="JVchiZWiMFPqmeBSZ4L8-9" value="Jump" style="swimlane;whiteSpace=wrap;html=1;" vertex="1" parent="1">
          <mxGeometry x="480" y="599" width="160" height="120" as="geometry" />
        </mxCell>
        <mxCell id="JVchiZWiMFPqmeBSZ4L8-10" value="&lt;ul&gt;&lt;li&gt;int Start&lt;/li&gt;&lt;li&gt;int End&lt;/li&gt;&lt;/ul&gt;" style="text;html=1;align=left;verticalAlign=middle;resizable=0;points=[];autosize=1;strokeColor=none;fillColor=none;" vertex="1" parent="JVchiZWiMFPqmeBSZ4L8-9">
          <mxGeometry y="20" width="100" height="70" as="geometry" />
        </mxCell>
        <mxCell id="JVchiZWiMFPqmeBSZ4L8-13" value="(Acts as both snake and ladder)" style="text;html=1;align=center;verticalAlign=middle;resizable=0;points=[];autosize=1;strokeColor=none;fillColor=none;" vertex="1" parent="1">
          <mxGeometry x="465" y="719" width="190" height="30" as="geometry" />
        </mxCell>
        <mxCell id="JVchiZWiMFPqmeBSZ4L8-14" value="Board" style="swimlane;whiteSpace=wrap;html=1;" vertex="1" parent="1">
          <mxGeometry x="480" y="420" width="160" height="100" as="geometry" />
        </mxCell>
        <mxCell id="JVchiZWiMFPqmeBSZ4L8-16" value="&lt;ul&gt;&lt;li&gt;Cells [][] board&lt;/li&gt;&lt;/ul&gt;" style="text;html=1;align=left;verticalAlign=middle;resizable=0;points=[];autosize=1;strokeColor=none;fillColor=none;" vertex="1" parent="JVchiZWiMFPqmeBSZ4L8-14">
          <mxGeometry x="-10" y="20" width="140" height="50" as="geometry" />
        </mxCell>
        <mxCell id="JVchiZWiMFPqmeBSZ4L8-15" value="Cell" style="swimlane;whiteSpace=wrap;html=1;" vertex="1" parent="1">
          <mxGeometry x="480" y="200" width="160" height="160" as="geometry" />
        </mxCell>
        <mxCell id="JVchiZWiMFPqmeBSZ4L8-17" value="&lt;ul&gt;&lt;li&gt;Jump jmp&lt;/li&gt;&lt;/ul&gt;" style="text;html=1;align=left;verticalAlign=middle;resizable=0;points=[];autosize=1;strokeColor=none;fillColor=none;" vertex="1" parent="JVchiZWiMFPqmeBSZ4L8-15">
          <mxGeometry x="-10" y="20" width="120" height="50" as="geometry" />
        </mxCell>
        <mxCell id="JVchiZWiMFPqmeBSZ4L8-18" value="" style="endArrow=classic;html=1;rounded=0;exitX=0;exitY=0.5;exitDx=0;exitDy=0;entryX=0;entryY=0.75;entryDx=0;entryDy=0;" edge="1" parent="1" source="JVchiZWiMFPqmeBSZ4L8-15" target="JVchiZWiMFPqmeBSZ4L8-9">
          <mxGeometry relative="1" as="geometry">
            <mxPoint x="360" y="350" as="sourcePoint" />
            <mxPoint x="460" y="350" as="targetPoint" />
            <Array as="points">
              <mxPoint x="400" y="280" />
              <mxPoint x="400" y="690" />
            </Array>
          </mxGeometry>
        </mxCell>
        <mxCell id="JVchiZWiMFPqmeBSZ4L8-19" value="HAS-A" style="edgeLabel;resizable=0;html=1;;align=center;verticalAlign=middle;" connectable="0" vertex="1" parent="JVchiZWiMFPqmeBSZ4L8-18">
          <mxGeometry relative="1" as="geometry" />
        </mxCell>
        <mxCell id="JVchiZWiMFPqmeBSZ4L8-20" value="" style="endArrow=classic;html=1;rounded=0;entryX=0.5;entryY=1;entryDx=0;entryDy=0;exitX=0.5;exitY=0;exitDx=0;exitDy=0;" edge="1" parent="1" source="JVchiZWiMFPqmeBSZ4L8-14" target="JVchiZWiMFPqmeBSZ4L8-15">
          <mxGeometry relative="1" as="geometry">
            <mxPoint x="670" y="450" as="sourcePoint" />
            <mxPoint x="770" y="450" as="targetPoint" />
          </mxGeometry>
        </mxCell>
        <mxCell id="JVchiZWiMFPqmeBSZ4L8-21" value="HAS-A" style="edgeLabel;resizable=0;html=1;;align=center;verticalAlign=middle;" connectable="0" vertex="1" parent="JVchiZWiMFPqmeBSZ4L8-20">
          <mxGeometry relative="1" as="geometry" />
        </mxCell>
        <mxCell id="JVchiZWiMFPqmeBSZ4L8-22" value="Game" style="swimlane;whiteSpace=wrap;html=1;" vertex="1" parent="1">
          <mxGeometry x="760" y="320" width="200" height="200" as="geometry" />
        </mxCell>
        <mxCell id="JVchiZWiMFPqmeBSZ4L8-23" value="&lt;ul&gt;&lt;li&gt;Board board&lt;/li&gt;&lt;li&gt;Dice dice&lt;/li&gt;&lt;li&gt;Deque&amp;lt;Player&amp;gt; players&lt;/li&gt;&lt;/ul&gt;" style="text;html=1;align=left;verticalAlign=middle;resizable=0;points=[];autosize=1;strokeColor=none;fillColor=none;" vertex="1" parent="JVchiZWiMFPqmeBSZ4L8-22">
          <mxGeometry y="20" width="190" height="80" as="geometry" />
        </mxCell>
        <mxCell id="JVchiZWiMFPqmeBSZ4L8-24" value="" style="endArrow=classic;html=1;rounded=0;exitX=0;exitY=0.75;exitDx=0;exitDy=0;entryX=1;entryY=0.5;entryDx=0;entryDy=0;" edge="1" parent="1" source="JVchiZWiMFPqmeBSZ4L8-22" target="JVchiZWiMFPqmeBSZ4L8-14">
          <mxGeometry relative="1" as="geometry">
            <mxPoint x="650" y="480" as="sourcePoint" />
            <mxPoint x="750" y="480" as="targetPoint" />
          </mxGeometry>
        </mxCell>
        <mxCell id="JVchiZWiMFPqmeBSZ4L8-25" value="HAS-A" style="edgeLabel;resizable=0;html=1;;align=center;verticalAlign=middle;" connectable="0" vertex="1" parent="JVchiZWiMFPqmeBSZ4L8-24">
          <mxGeometry relative="1" as="geometry" />
        </mxCell>
        <mxCell id="JVchiZWiMFPqmeBSZ4L8-26" value="" style="endArrow=classic;html=1;rounded=0;exitX=0.5;exitY=1;exitDx=0;exitDy=0;entryX=0.627;entryY=0.018;entryDx=0;entryDy=0;entryPerimeter=0;" edge="1" parent="1" source="JVchiZWiMFPqmeBSZ4L8-22" target="JVchiZWiMFPqmeBSZ4L8-4">
          <mxGeometry relative="1" as="geometry">
            <mxPoint x="960" y="540" as="sourcePoint" />
            <mxPoint x="1060" y="540" as="targetPoint" />
          </mxGeometry>
        </mxCell>
        <mxCell id="JVchiZWiMFPqmeBSZ4L8-27" value="HAS-A" style="edgeLabel;resizable=0;html=1;;align=center;verticalAlign=middle;" connectable="0" vertex="1" parent="JVchiZWiMFPqmeBSZ4L8-26">
          <mxGeometry relative="1" as="geometry" />
        </mxCell>
        <mxCell id="JVchiZWiMFPqmeBSZ4L8-28" value="" style="endArrow=classic;html=1;rounded=0;exitX=1;exitY=0.75;exitDx=0;exitDy=0;entryX=0.5;entryY=0;entryDx=0;entryDy=0;" edge="1" parent="1" source="JVchiZWiMFPqmeBSZ4L8-22" target="JVchiZWiMFPqmeBSZ4L8-2">
          <mxGeometry relative="1" as="geometry">
            <mxPoint x="1090" y="490" as="sourcePoint" />
            <mxPoint x="1190" y="490" as="targetPoint" />
            <Array as="points">
              <mxPoint x="1120" y="470" />
            </Array>
          </mxGeometry>
        </mxCell>
        <mxCell id="JVchiZWiMFPqmeBSZ4L8-29" value="HAS-A" style="edgeLabel;resizable=0;html=1;;align=center;verticalAlign=middle;" connectable="0" vertex="1" parent="JVchiZWiMFPqmeBSZ4L8-28">
          <mxGeometry relative="1" as="geometry" />
        </mxCell>
      </root>
    </mxGraphModel>
  </diagram>
</mxfile>
